PathFileType	4	(X/Y/Z)	 0.11m3min.trc
DataRate	CameraRate	NumFrames	NumMarkers	Units	OrigDataRate	OrigDataStartFrame	OrigNumFrames
200	200	9	39	m	200	251	1000
Frame#	Time	C7			LSH			RSH			MAN			RASI			LASI			HIPR			HIPL			RPSI			LPSI			COX			RTHI1			RTHI2			RTHI3			RTHI4			RLKN			RMKN			RSHA1			RSHA2			RSHA3			RSHA4			RHEEL			RMET5			RMET1			RTOE			LTHI1			LTHI2			LTHI3			LTHI4			LLKN			LMKN			LSHA1			LSHA2			LSHA3			LSHA4			LHEEL			LMET5			LMET1			LTOE			
		X1	Y1	Z1	X2	Y2	Z2	X3	Y3	Z3	X4	Y4	Z4	X5	Y5	Z5	X6	Y6	Z6	X7	Y7	Z7	X8	Y8	Z8	X9	Y9	Z9	X10	Y10	Z10	X11	Y11	Z11	X12	Y12	Z12	X13	Y13	Z13	X14	Y14	Z14	X15	Y15	Z15	X16	Y16	Z16	X17	Y17	Z17	X18	Y18	Z18	X19	Y19	Z19	X20	Y20	Z20	X21	Y21	Z21	X22	Y22	Z22	X23	Y23	Z23	X24	Y24	Z24	X25	Y25	Z25	X26	Y26	Z26	X27	Y27	Z27	X28	Y28	Z28	X29	Y29	Z29	X30	Y30	Z30	X31	Y31	Z31	X32	Y32	Z32	X33	Y33	Z33	X34	Y34	Z34	X35	Y35	Z35	X36	Y36	Z36	X37	Y37	Z37	X38	Y38	Z38	X39	Y39	Z39	
251	1.2550	-0.317094	1.572749	-0.558904	-0.289099	1.562756	-0.746557	-0.289604	1.556588	-0.380591	-0.163501	1.524642	-0.569573	-0.176680	1.062522	-0.446400	-0.180845	1.062292	-0.691475	-0.241258	1.126370	-0.401709	-0.252672	1.131568	-0.729633	-0.353250	1.116814	-0.529027	-0.353845	1.116731	-0.592323	-0.352535	1.117831	-0.562616	-0.240988	0.839855	-0.363473	-0.233818	0.778894	-0.364132	-0.163543	0.795501	-0.372120	-0.177635	0.853351	-0.371664	-0.253406	0.569551	-0.383859	-0.230561	0.551484	-0.514675	-0.331496	0.334638	-0.380583	-0.346192	0.297052	-0.393361	-0.287175	0.280778	-0.389773	-0.276394	0.318519	-0.380719	-0.398579	0.170500	-0.449217	-0.262996	0.061557	-0.387773	-0.214910	0.073386	-0.456190	-0.188439	0.059863	-0.449429	-0.298936	0.815749	-0.747964	-0.286534	0.757752	-0.742059	-0.218374	0.772398	-0.763605	-0.239362	0.830606	-0.767446	-0.274794	0.548416	-0.731948	-0.249415	0.531272	-0.610889	-0.365034	0.316504	-0.714365	-0.000000	0.000000	-0.000000	-0.316223	0.265237	-0.722271	-0.314198	0.308871	-0.730983	-0.419976	0.166199	-0.652668	-0.292001	0.054813	-0.722389	-0.243053	0.065848	-0.660675	-0.219737	0.051988	-0.668407	
252	1.2600	-0.316556	1.568143	-0.558918	-0.288670	1.557918	-0.746554	-0.289376	1.551688	-0.380579	-0.163092	1.519865	-0.569500	-0.177094	1.057922	-0.446318	-0.180965	1.057670	-0.691350	-0.241737	1.122027	-0.401733	-0.252466	1.127127	-0.729689	-0.353463	1.112746	-0.529330	-0.354009	1.112606	-0.592649	-0.352685	1.113726	-0.562899	-0.240490	0.835290	-0.363626	-0.232958	0.774374	-0.364132	-0.162777	0.791423	-0.372091	-0.177223	0.849167	-0.371760	-0.251509	0.564999	-0.383753	-0.228665	0.547142	-0.514515	-0.331123	0.330689	-0.381105	-0.346073	0.293223	-0.394011	-0.287172	0.276520	-0.390461	-0.276138	0.314146	-0.381284	-0.399438	0.167360	-0.450364	-0.264980	0.057506	-0.388255	-0.216482	0.068793	-0.456572	-0.190157	0.055069	-0.449670	-0.298360	0.811014	-0.748180	-0.285717	0.753060	-0.742395	-0.217637	0.768049	-0.763983	-0.238855	0.826148	-0.767665	-0.273235	0.543999	-0.732618	-0.247657	0.526840	-0.611596	-0.364665	0.312578	-0.714546	-0.000000	0.000000	-0.000000	-0.316135	0.261077	-0.722568	-0.313900	0.304697	-0.731368	-0.420462	0.162877	-0.652418	-0.293772	0.050333	-0.722869	-0.244094	0.061138	-0.661190	-0.220990	0.047237	-0.669046	
253	1.2650	-0.316017	1.563278	-0.558941	-0.288232	1.552816	-0.746577	-0.289140	1.546518	-0.380574	-0.162666	1.514841	-0.569436	-0.177515	1.053048	-0.446245	-0.181115	1.052805	-0.691229	-0.242209	1.117409	-0.401717	-0.252310	1.122425	-0.729725	-0.353683	1.108434	-0.529616	-0.354180	1.108244	-0.592954	-0.352845	1.109381	-0.563165	-0.239966	0.830453	-0.363739	-0.232049	0.769586	-0.364062	-0.161969	0.787078	-0.371986	-0.176791	0.844723	-0.371807	-0.249562	0.560177	-0.383613	-0.226595	0.542532	-0.514290	-0.330832	0.326556	-0.381650	-0.346055	0.289225	-0.394705	-0.287281	0.272046	-0.391156	-0.275975	0.309555	-0.381837	-0.400479	0.164131	-0.451663	-0.267269	0.053236	-0.388788	-0.218295	0.063914	-0.456924	-0.192143	0.049940	-0.449846	-0.297748	0.806092	-0.748396	-0.284861	0.748180	-0.742776	-0.216872	0.763534	-0.764438	-0.238322	0.821513	-0.767900	-0.271531	0.539379	-0.733355	-0.245855	0.522209	-0.612378	-0.364493	0.308534	-0.714802	-0.000000	0.000000	-0.000000	-0.316253	0.256781	-0.722817	-0.313770	0.300366	-0.731755	-0.421476	0.159259	-0.652326	-0.295660	0.046133	-0.723621	-0.244593	0.057616	-0.660918	-0.221242	0.043632	-0.668468	
254	1.2700	-0.315488	1.558163	-0.558967	-0.287788	1.547447	-0.746637	-0.288902	1.541104	-0.380571	-0.162244	1.509569	-0.569386	-0.177944	1.047896	-0.446181	-0.181301	1.047704	-0.691110	-0.242656	1.112515	-0.401646	-0.252207	1.117460	-0.729749	-0.353909	1.103881	-0.529871	-0.354355	1.103643	-0.593232	-0.353023	1.104801	-0.563411	-0.239410	0.825341	-0.363808	-0.231088	0.764535	-0.363916	-0.161125	0.782466	-0.371815	-0.176342	0.840024	-0.371807	-0.247556	0.555120	-0.383436	-0.224371	0.537658	-0.513997	-0.330652	0.322236	-0.382169	-0.346171	0.285036	-0.395430	-0.287532	0.267373	-0.391879	-0.275934	0.304747	-0.382379	-0.401820	0.160698	-0.453082	-0.269891	0.048695	-0.389331	-0.220237	0.059055	-0.457405	-0.194298	0.045390	-0.450329	-0.297093	0.800987	-0.748597	-0.283962	0.743116	-0.743200	-0.216080	0.758847	-0.764958	-0.237760	0.816711	-0.768144	-0.269650	0.534551	-0.734161	-0.244014	0.517377	-0.613242	-0.364582	0.304471	-0.715192	-0.000000	0.000000	-0.000000	-0.316676	0.252390	-0.722972	-0.313893	0.295897	-0.732090	-0.423130	0.155386	-0.652378	-0.296781	0.042757	-0.724324	-0.244465	0.054954	-0.660527	-0.220822	0.040820	-0.667258	
255	1.2750	-0.314976	1.552801	-0.558993	-0.287319	1.541829	-0.746732	-0.288658	1.535440	-0.380565	-0.161820	1.504053	-0.569348	-0.178382	1.042480	-0.446127	-0.181527	1.042386	-0.690989	-0.243067	1.107341	-0.401497	-0.252165	1.112233	-0.729763	-0.354146	1.099069	-0.530087	-0.354540	1.098804	-0.593473	-0.353219	1.099986	-0.563622	-0.238831	0.819966	-0.363827	-0.230088	0.759225	-0.363691	-0.160258	0.777624	-0.371595	-0.175892	0.835078	-0.371772	-0.245467	0.549836	-0.383209	-0.222004	0.532515	-0.513634	-0.330628	0.317750	-0.382668	-0.346476	0.280702	-0.396197	-0.287975	0.262530	-0.392656	-0.276070	0.299746	-0.382938	-0.403572	0.156987	-0.454582	-0.272732	0.044264	-0.389589	-0.221882	0.055330	-0.458460	-0.195689	0.041807	-0.451783	-0.296391	0.795714	-0.748761	-0.283018	0.737873	-0.743658	-0.215260	0.753991	-0.765544	-0.237165	0.811752	-0.768386	-0.267571	0.529522	-0.735042	-0.242126	0.512356	-0.614199	-0.364994	0.300426	-0.715676	-0.000000	0.000000	-0.000000	-0.317487	0.247930	-0.722971	-0.314334	0.291311	-0.732331	-0.425517	0.151310	-0.652597	-0.297207	0.040310	-0.724632	-0.244179	0.053002	-0.660115	-0.220341	0.039009	-0.665842	
256	1.2800	-0.314484	1.547205	-0.559015	-0.286827	1.535961	-0.746873	-0.288406	1.529543	-0.380544	-0.161390	1.498301	-0.569318	-0.178836	1.036819	-0.446076	-0.181795	1.036856	-0.690857	-0.243458	1.101885	-0.401279	-0.252194	1.106747	-0.729773	-0.354401	1.094011	-0.530252	-0.354716	1.093728	-0.593664	-0.353439	1.094936	-0.563782	-0.238258	0.814321	-0.363754	-0.229063	0.753652	-0.363371	-0.159379	0.772546	-0.371328	-0.175453	0.829880	-0.371707	-0.243252	0.544307	-0.382913	-0.219510	0.527110	-0.513197	-0.330795	0.313134	-0.383161	-0.347015	0.276271	-0.397018	-0.288680	0.257538	-0.393511	-0.276416	0.294569	-0.383526	-0.405781	0.153019	-0.456124	-0.275178	0.040597	-0.389513	-0.222898	0.052606	-0.459541	-0.196323	0.039103	-0.453447	-0.295636	0.790275	-0.748875	-0.282024	0.732462	-0.744142	-0.214412	0.748969	-0.766193	-0.236533	0.806635	-0.768623	-0.265256	0.524295	-0.736003	-0.240156	0.507151	-0.615258	-0.365730	0.296475	-0.716206	-0.000000	0.000000	-0.000000	-0.318741	0.243433	-0.722780	-0.315114	0.286645	-0.732447	-0.428544	0.147143	-0.652991	-0.297780	0.038608	-0.725126	-0.244240	0.051991	-0.659346	-0.219930	0.038202	-0.664069	
257	1.2850	-0.314016	1.541391	-0.559029	-0.286318	1.529853	-0.747075	-0.288151	1.523443	-0.380505	-0.160953	1.492333	-0.569299	-0.179314	1.030934	-0.446025	-0.182107	1.031129	-0.690705	-0.243821	1.096143	-0.400992	-0.252323	1.101010	-0.729791	-0.354676	1.088716	-0.530344	-0.354897	1.088416	-0.593792	-0.353690	1.089657	-0.563876	-0.237702	0.808420	-0.363584	-0.228022	0.747834	-0.362942	-0.158502	0.767236	-0.371006	-0.175028	0.824440	-0.371617	-0.240886	0.538532	-0.382554	-0.216900	0.521449	-0.512688	-0.331175	0.308452	-0.383634	-0.347817	0.271815	-0.397893	-0.289674	0.252460	-0.394459	-0.276998	0.289265	-0.384159	-0.408480	0.148811	-0.457625	-0.276888	0.037925	-0.389397	-0.223466	0.050699	-0.460186	-0.196698	0.037461	-0.454756	-0.294820	0.784670	-0.748958	-0.280973	0.726886	-0.744646	-0.213529	0.743788	-0.766906	-0.235862	0.801370	-0.768860	-0.262694	0.518893	-0.737024	-0.238058	0.501787	-0.616413	-0.366695	0.292650	-0.716699	-0.000000	0.000000	-0.000000	-0.320371	0.238929	-0.722441	-0.316134	0.281947	-0.732472	-0.431962	0.143119	-0.653517	-0.298555	0.037656	-0.725890	-0.244734	0.051782	-0.658440	-0.219712	0.037998	-0.662288	
258	1.2900	-0.313580	1.535393	-0.559031	-0.285795	1.523511	-0.747346	-0.287899	1.517160	-0.380437	-0.160504	1.486163	-0.569290	-0.179822	1.024847	-0.445969	-0.182468	1.025222	-0.690530	-0.244190	1.090141	-0.400634	-0.252555	1.095028	-0.729827	-0.354977	1.083194	-0.530362	-0.355092	1.082884	-0.593849	-0.353977	1.084150	-0.563895	-0.237172	0.802288	-0.363318	-0.226984	0.741788	-0.362391	-0.157638	0.761722	-0.370621	-0.174639	0.818780	-0.371502	-0.238352	0.532524	-0.382145	-0.214176	0.515549	-0.512109	-0.331750	0.303772	-0.384091	-0.348863	0.267400	-0.398852	-0.290936	0.247363	-0.395516	-0.277797	0.283893	-0.384852	-0.411607	0.144417	-0.458992	-0.278118	0.036118	-0.389358	-0.223934	0.049724	-0.460619	-0.196743	0.036917	-0.456245	-0.293942	0.778903	-0.749040	-0.279861	0.721154	-0.745195	-0.212601	0.738453	-0.767687	-0.235146	0.795965	-0.769123	-0.259910	0.513359	-0.738100	-0.235792	0.496280	-0.617658	-0.367698	0.288963	-0.717247	-0.000000	0.000000	-0.000000	-0.322186	0.234456	-0.722010	-0.317233	0.277239	-0.732438	-0.435517	0.139344	-0.654113	-0.299141	0.037132	-0.726260	-0.246056	0.051333	-0.658052	-0.220562	0.037606	-0.661284	
259	1.2950	-0.313176	1.529248	-0.559015	-0.285262	1.516960	-0.747690	-0.287651	1.510715	-0.380339	-0.160024	1.479820	-0.569289	-0.180362	1.018592	-0.445905	-0.182879	1.019159	-0.690324	-0.244577	1.083849	-0.400211	-0.252883	1.088814	-0.729877	-0.355320	1.077458	-0.530303	-0.355338	1.077150	-0.593820	-0.354299	1.078420	-0.563823	-0.236685	0.795947	-0.362950	-0.225963	0.735543	-0.361704	-0.156800	0.756043	-0.370157	-0.174294	0.812928	-0.371350	-0.235632	0.526294	-0.381707	-0.211325	0.509435	-0.511472	-0.332401	0.299154	-0.384595	-0.350041	0.263089	-0.399818	-0.292380	0.242308	-0.396662	-0.278708	0.278534	-0.385608	-0.414919	0.140058	-0.460175	-0.279112	0.035314	-0.389196	-0.224354	0.049641	-0.461213	-0.196530	0.036701	-0.457496	-0.293012	0.772981	-0.749169	-0.278686	0.715269	-0.745804	-0.211623	0.732982	-0.768541	-0.234392	0.790416	-0.769453	-0.256960	0.507743	-0.739231	-0.233333	0.490677	-0.618981	-0.368580	0.285326	-0.717802	-0.000000	0.000000	-0.000000	-0.323938	0.230023	-0.721553	-0.318207	0.272562	-0.732394	-0.439006	0.135751	-0.654801	-0.300141	0.036634	-0.726497	-0.247949	0.050949	-0.657420	-0.221928	0.037390	-0.660495	
